<svg xmlns="http://www.w3.org/2000/svg" viewBox="0 0 760 420"><rect width="760" height="420" rx="34" fill="#eef3f8"/><rect x="84" y="100" width="104" height="210" rx="16" fill="#ffffff"/><rect x="216" y="65" width="130" height="245" rx="18" fill="#ffffff"/><rect x="374" y="130" width="95" height="180" rx="16" fill="#ffffff"/><g fill="#d5dde7"><rect x="110" y="128" width="18" height="18" rx="4"/><rect x="146" y="128" width="18" height="18" rx="4"/><rect x="110" y="168" width="18" height="18" rx="4"/><rect x="146" y="168" width="18" height="18" rx="4"/><rect x="252" y="100" width="22" height="22" rx="4"/><rect x="292" y="100" width="22" height="22" rx="4"/><rect x="252" y="148" width="22" height="22" rx="4"/><rect x="292" y="148" width="22" height="22" rx="4"/></g><rect x="512" y="92" width="112" height="210" rx="22" fill="#0b1f3a"/><rect x="532" y="118" width="72" height="50" rx="10" fill="#e8f4ff"/><rect x="535" y="190" width="66" height="12" rx="6" fill="#ffb199"/><rect x="535" y="218" width="48" height="12" rx="6" fill="#ff6b4a"/><path d="M52 332h654" stroke="#0b1f3a" stroke-width="12" stroke-linecap="round"/><path d="M96 358h566" stroke="#ff6b4a" stroke-width="8" stroke-linecap="round"/><text x="92" y="382" font-family="Arial" font-size="26" font-weight="700" fill="#0b1f3a">Paradas claras y accesibles</text></svg>